<svg width="500" height="500" xmlns="http://www.w3.org/2000/svg">
    <path style="fill: none; stroke: #fff; stroke-width: 18; stroke-linejoin: round; stroke-linecap: round;" d="M80 420 
        L80 380 
        Q80 350 100 330 
        L150 280 
        Q170 260 170 230 
        L170 180 
        Q170 150 200 130 
        L280 80 
        Q310 60 340 70 
        L400 90 
        Q430 100 440 130 
        L450 200 
        Q455 240 430 270 
        C380 340 420 350 400 400 
        Q380 450 340 460 
        L200 470 
        Q150 475 120 450 
        L90 430 
        Q80 425 80 420 
        Z" />
</svg>
